<svg width="433.61005859375px" height="122.021240234375px" xmlns="http://www.w3.org/2000/svg" viewBox="33.194970703124994 13.9893798828125 433.61005859375 122.021240234375" style="background:#444" preserveAspectRatio="xMidYMid"><defs><filter id="editing-crystal" x="-100%" y="-100%" width="300%" height="300%"><feMorphology operator="dilate" radius="2" in="SourceGraphic" result="border"></feMorphology><feFlood flood-color="#fff" result="black"></feFlood><feMorphology operator="dilate" radius="2" in="SourceGraphic" result="erode"></feMorphology><feGaussianBlur in="erode" stdDeviation="4" result="blur"></feGaussianBlur><feOffset in="blur" dx="2" dy="2" result="offset"></feOffset><feComposite operator="atop" in="offset" in2="black" result="merge"></feComposite><feComposite operator="in" in="merge" in2="SourceGraphic" result="inner-shadow"></feComposite><feGaussianBlur in="SourceGraphic" stdDeviation="2.5" result="shadow1"></feGaussianBlur><feOffset in="shadow1" dx="0" dy="5" result="shadow"></feOffset><feSpecularLighting in="SourceGraphic" result="specular" surfaceScale="1.5" specularConstant="100" specularExponent="10" lighting-color="#fff"><fePointLight x="250" y="-300" z="-400"></fePointLight></feSpecularLighting><feGaussianBlur in="specular" stdDeviation="1" result="specular2"></feGaussianBlur><feComposite operator="in" in="specular2" in2="SourceAlpha" result="specular3"></feComposite><feMerge result="merge"><feMergeNode in="border"></feMergeNode><feMergeNode in="inner-shadow"></feMergeNode><feMergeNode in="specular3"></feMergeNode></feMerge><feComponentTransfer in="merge" result="final"><feFuncA type="linear" slope="0.9" intercept="0"></feFuncA></feComponentTransfer><feMerge><feMergeNode in="shadow"></feMergeNode><feMergeNode in="final"></feMergeNode></feMerge></filter></defs><g filter="url(#editing-crystal)"><g transform="translate(98.2250006198883, 104.75218772888184)"><path d="M14.14 0L0.51 0L7.81-38.91L8.51-42.24L22.21-42.24L14.14 0ZM40.13-3.78L40.13-3.78L40.13-3.78Q38.40 1.28 31.74 1.28L31.74 1.28L31.74 1.28Q26.82 1.28 23.42-4.61L23.42-4.61L23.42-4.61Q19.97-10.50 19.33-20.10L19.33-20.10L19.33-20.10Q26.37-32.96 31.23-38.27L31.23-38.27L31.23-38.27Q35.90-43.33 40.77-43.33L40.77-43.33L40.77-43.33Q43.39-43.33 45.28-41.92L45.28-41.92L45.28-41.92Q47.17-40.51 47.62-38.27L47.62-38.27L47.62-38.27Q45.44-37.38 44.42-36.67L44.42-36.67L44.42-36.67Q41.86-34.75 38.40-30.46L38.40-30.46L32.58-23.49L32.58-23.49Q31.17-21.82 30.59-21.06L30.59-21.06L30.59-21.06Q31.55-15.68 34.43-10.37L34.43-10.37L34.43-10.37Q37.18-5.31 40.13-3.78ZM46.56-1.92L46.56-1.92L46.56-1.92Q45.06-3.58 44.38-6.21L44.38-6.21L44.38-6.21Q43.71-8.83 43.71-13.12L43.71-13.12L43.71-13.12Q43.71-17.41 45.18-21.31L45.18-21.31L45.18-21.31Q46.66-25.22 49.34-28.03L49.34-28.03L49.34-28.03Q54.85-33.92 63.94-33.92L63.94-33.92L63.94-33.92Q67.20-33.92 69.57-32.83L69.57-32.83L80.51-33.92L75.78-8.96L75.78-8.96Q75.58-8.19 75.58-6.78L75.58-6.78L75.58-6.78Q75.58-5.38 76.45-4.48L76.45-4.48L76.45-4.48Q77.31-3.58 78.59-3.46L78.59-3.46L78.59-3.46Q77.95-1.28 75.62 0L75.62 0L75.62 0Q73.28 1.28 70.66 1.28L70.66 1.28L70.66 1.28Q68.03 1.28 66.27 0.29L66.27 0.29L66.27 0.29Q64.51-0.70 64-2.37L64-2.37L64-2.37Q62.98-0.77 60.80 0.26L60.80 0.26L60.80 0.26Q58.62 1.28 55.71 1.28L55.71 1.28L55.71 1.28Q52.80 1.28 50.43 0.51L50.43 0.51L50.43 0.51Q48.06-0.26 46.56-1.92ZM60.06-27.90L60.06-27.90L60.06-27.90Q59.33-26.75 58.69-24.80L58.69-24.80L58.69-24.80Q58.05-22.85 56.99-17.63L56.99-17.63L56.99-17.63Q55.94-12.42 55.94-8.70L55.94-8.70L55.94-8.70Q55.94-4.99 56.51-3.90L56.51-3.90L56.51-3.90Q57.09-2.82 58.11-2.82L58.11-2.82L58.11-2.82Q60.16-2.82 61.66-4.77L61.66-4.77L61.66-4.77Q63.17-6.72 63.74-10.18L63.74-10.18L67.14-28.93L67.14-28.93Q65.79-30.08 64.22-30.08L64.22-30.08L64.22-30.08Q62.66-30.08 61.73-29.57L61.73-29.57L61.73-29.57Q60.80-29.06 60.06-27.90ZM84.99-6.40L84.99-6.40L84.99-6.40Q84.99-8.13 85.89-12.48L85.89-12.48L89.28-29.76L85.50-29.76L85.76-31.68L85.76-31.68Q93.44-33.98 100.86-39.62L100.86-39.62L103.94-39.62L102.40-32.64L107.39-32.64L106.82-29.76L101.89-29.76L98.62-12.48L98.62-12.48Q97.79-8.51 97.79-7.17L97.79-7.17L97.79-7.17Q97.79-4.10 100.48-3.46L100.48-3.46L100.48-3.46Q99.84-1.28 97.54 0L97.54 0L97.54 0Q95.23 1.28 91.97 1.28L91.97 1.28L91.97 1.28Q88.70 1.28 86.85-0.77L86.85-0.77L86.85-0.77Q84.99-2.82 84.99-6.40ZM132.74-10.82L132.74-10.82L132.74-10.82Q134.34-9.73 134.34-7.33L134.34-7.33L134.34-7.33Q134.34-4.93 133.12-3.39L133.12-3.39L133.12-3.39Q131.90-1.86 129.92-0.83L129.92-0.83L129.92-0.83Q125.82 1.28 121.41 1.28L121.41 1.28L121.41 1.28Q116.99 1.28 114.40 0.32L114.40 0.32L114.40 0.32Q111.81-0.64 110.08-2.43L110.08-2.43L110.08-2.43Q106.69-5.82 106.69-12.03L106.69-12.03L106.69-12.03Q106.69-21.70 111.94-27.58L111.94-27.58L111.94-27.58Q117.57-33.92 127.36-33.92L127.36-33.92L127.36-33.92Q133.44-33.92 136.45-31.36L136.45-31.36L136.45-31.36Q138.69-29.44 138.69-26.30L138.69-26.30L138.69-26.30Q138.69-15.04 119.23-15.04L119.23-15.04L119.23-15.04Q118.98-13.38 118.98-11.97L118.98-11.97L118.98-11.97Q118.98-9.02 120.29-7.90L120.29-7.90L120.29-7.90Q121.60-6.78 124.03-6.78L124.03-6.78L124.03-6.78Q126.46-6.78 129.06-7.90L129.06-7.90L129.06-7.90Q131.65-9.02 132.74-10.82ZM119.68-17.79L119.68-17.79L119.68-17.79Q124.22-17.79 126.85-20.61L126.85-20.61L126.85-20.61Q129.47-23.30 129.47-27.58L129.47-27.58L129.47-27.58Q129.47-29.06 128.93-29.86L128.93-29.86L128.93-29.86Q128.38-30.66 127.30-30.66L127.30-30.66L127.30-30.66Q126.21-30.66 125.28-30.24L125.28-30.24L125.28-30.24Q124.35-29.82 123.39-28.42L123.39-28.42L123.39-28.42Q121.02-25.22 119.68-17.79ZM145.41-26.75L145.41-26.75L145.41-26.75Q147.58-29.82 150.88-31.87L150.88-31.87L150.88-31.87Q154.18-33.92 158.21-33.92L158.21-33.92L158.21-33.92Q162.24-33.92 164.16-32.64L164.16-32.64L176.70-33.92L172.35-9.34L172.35-9.34Q170.11 3.20 165.38 8.13L165.38 8.13L165.38 8.13Q160.83 12.80 152 12.80L152 12.80L152 12.80Q145.28 12.80 141.44 10.69L141.44 10.69L141.44 10.69Q137.60 8.58 137.60 5.06L137.60 5.06L137.60 5.06Q137.60 2.43 139.58 0.93L139.58 0.93L139.58 0.93Q141.57-0.58 144.64-0.58L144.64-0.58L144.64-0.58Q147.33-0.58 149.38 0.64L149.38 0.64L149.38 0.64Q150.59 1.28 151.17 2.18L151.17 2.18L151.17 2.18Q149.70 3.46 149.70 5.57L149.70 5.57L149.70 5.57Q149.70 8.32 152.26 8.32L152.26 8.32L152.26 8.32Q156.54 8.32 158.98-1.79L158.98-1.79L158.98-1.79Q159.68-4.54 160.26-7.30L160.26-7.30L160.26-7.30Q157.38-3.78 150.85-3.78L150.85-3.78L150.85-3.78Q146.30-3.78 143.68-5.95L143.68-5.95L143.68-5.95Q141.06-8.13 141.06-13.25L141.06-13.25L141.06-13.25Q141.06-16.45 142.14-20.06L142.14-20.06L142.14-20.06Q143.23-23.68 145.41-26.75ZM153.73-13.06L153.73-13.06L153.73-13.06Q153.73-8.70 155.97-8.70L155.97-8.70L155.97-8.70Q157.50-8.70 158.98-10.37L158.98-10.37L158.98-10.37Q160.13-11.71 160.58-13.70L160.58-13.70L163.84-30.14L163.84-30.14Q163.52-30.21 163.20-30.34L163.20-30.34L163.20-30.34Q162.56-30.59 161.73-30.59L161.73-30.59L161.73-30.59Q157.82-30.59 155.52-24.19L155.52-24.19L155.52-24.19Q153.73-19.20 153.73-13.06ZM193.15 1.28L193.15 1.28L193.15 1.28Q179.07 1.28 179.07-11.97L179.07-11.97L179.07-11.97Q179.07-21.38 184.26-27.46L184.26-27.46L184.26-27.46Q189.76-33.92 199.30-33.92L199.30-33.92L199.30-33.92Q206.21-33.92 209.73-30.72L209.73-30.72L209.73-30.72Q213.25-27.52 213.25-20.80L213.25-20.80L213.25-20.80Q213.25-10.56 207.74-4.61L207.74-4.61L207.74-4.61Q202.37 1.28 193.15 1.28ZM194.82-26.56L194.82-26.56L194.82-26.56Q194.05-24.83 193.44-22.24L193.44-22.24L193.44-22.24Q192.83-19.65 192.06-15.55L192.06-15.55L192.06-15.55Q191.30-11.46 191.30-6.40L191.30-6.40L191.30-6.40Q191.30-4.74 191.84-3.65L191.84-3.65L191.84-3.65Q192.38-2.56 193.86-2.56L193.86-2.56L193.86-2.56Q195.33-2.56 196.26-3.26L196.26-3.26L196.26-3.26Q197.18-3.97 197.89-5.63L197.89-5.63L197.89-5.63Q199.17-8.58 200.19-14.05L200.19-14.05L200.19-14.05Q201.22-19.52 201.31-21.89L201.31-21.89L201.31-21.89Q201.41-24.26 201.41-26.02L201.41-26.02L201.41-26.02Q201.41-27.78 200.90-28.93L200.90-28.93L200.90-28.93Q200.38-30.08 198.94-30.08L198.94-30.08L198.94-30.08Q197.50-30.08 196.54-29.18L196.54-29.18L196.54-29.18Q195.58-28.29 194.82-26.56ZM237.06-17.98L237.06-17.98L237.06-17.98Q239.36-22.08 239.36-26.24L239.36-26.24L239.36-26.24Q239.36-28.99 237.38-28.99L237.38-28.99L237.38-28.99Q235.84-28.99 234.24-26.37L234.24-26.37L234.24-26.37Q232.58-23.74 232.06-20.35L232.06-20.35L228.74 0L215.49 1.28L222.02-32.64L232.58-33.92L231.42-27.46L231.42-27.46Q234.56-33.92 241.60-33.92L241.60-33.92L241.60-33.92Q245.31-33.92 247.33-32L247.33-32L247.33-32Q249.34-30.08 249.34-26.14L249.34-26.14L249.34-26.14Q249.34-22.21 246.75-19.71L246.75-19.71L246.75-19.71Q244.16-17.22 239.74-17.22L239.74-17.22L239.74-17.22Q237.82-17.22 237.06-17.98ZM265.73-3.52L265.73-3.52L265.73-3.52Q263.74 1.28 257.41 1.28L257.41 1.28L257.41 1.28Q254.14 1.28 252.10-0.96L252.10-0.96L252.10-0.96Q250.37-2.94 250.37-4.93L250.37-4.93L250.37-4.93Q250.37-10.11 252.74-20.22L252.74-20.22L255.10-32.64L268.10-33.92L264.19-13.70L264.19-13.70Q263.10-8.96 263.10-7.30L263.10-7.30L263.10-7.30Q263.10-3.65 265.73-3.52ZM256.26-41.54L256.26-41.54L256.26-41.54Q256.26-44.03 258.34-45.38L258.34-45.38L258.34-45.38Q260.42-46.72 263.42-46.72L263.42-46.72L263.42-46.72Q266.43-46.72 268.26-45.38L268.26-45.38L268.26-45.38Q270.08-44.03 270.08-41.54L270.08-41.54L270.08-41.54Q270.08-39.04 268.06-37.76L268.06-37.76L268.06-37.76Q266.05-36.48 263.04-36.48L263.04-36.48L263.04-36.48Q260.03-36.48 258.14-37.76L258.14-37.76L258.14-37.76Q256.26-39.04 256.26-41.54ZM297.09-10.82L297.09-10.82L297.09-10.82Q298.69-9.73 298.69-7.33L298.69-7.33L298.69-7.33Q298.69-4.93 297.47-3.39L297.47-3.39L297.47-3.39Q296.26-1.86 294.27-0.83L294.27-0.83L294.27-0.83Q290.18 1.28 285.76 1.28L285.76 1.28L285.76 1.28Q281.34 1.28 278.75 0.32L278.75 0.32L278.75 0.32Q276.16-0.64 274.43-2.43L274.43-2.43L274.43-2.43Q271.04-5.82 271.04-12.03L271.04-12.03L271.04-12.03Q271.04-21.70 276.29-27.58L276.29-27.58L276.29-27.58Q281.92-33.92 291.71-33.92L291.71-33.92L291.71-33.92Q297.79-33.92 300.80-31.36L300.80-31.36L300.80-31.36Q303.04-29.44 303.04-26.30L303.04-26.30L303.04-26.30Q303.04-15.04 283.58-15.04L283.58-15.04L283.58-15.04Q283.33-13.38 283.33-11.97L283.33-11.97L283.33-11.97Q283.33-9.02 284.64-7.90L284.64-7.90L284.64-7.90Q285.95-6.78 288.38-6.78L288.38-6.78L288.38-6.78Q290.82-6.78 293.41-7.90L293.41-7.90L293.41-7.90Q296.00-9.02 297.09-10.82ZM284.03-17.79L284.03-17.79L284.03-17.79Q288.58-17.79 291.20-20.61L291.20-20.61L291.20-20.61Q293.82-23.30 293.82-27.58L293.82-27.58L293.82-27.58Q293.82-29.06 293.28-29.86L293.28-29.86L293.28-29.86Q292.74-30.66 291.65-30.66L291.65-30.66L291.65-30.66Q290.56-30.66 289.63-30.24L289.63-30.24L289.63-30.24Q288.70-29.82 287.74-28.42L287.74-28.42L287.74-28.42Q285.38-25.22 284.03-17.79Z" fill="#000000" stroke="#88e0eb" stroke-width="1.5"></path></g></g><style>text {
  font-size: 64px;
  font-family: Arial Black;
  dominant-baseline: central;
  text-anchor: middle;
}</style></svg>