<svg width="204.34370117187498px" height="122.021240234375px" xmlns="http://www.w3.org/2000/svg" viewBox="147.82814941406252 13.9893798828125 204.34370117187498 122.021240234375" style="background:#444" preserveAspectRatio="xMidYMid"><defs><filter id="editing-crystal" x="-100%" y="-100%" width="300%" height="300%"><feMorphology operator="dilate" radius="2" in="SourceGraphic" result="border"></feMorphology><feFlood flood-color="#fff" result="black"></feFlood><feMorphology operator="dilate" radius="2" in="SourceGraphic" result="erode"></feMorphology><feGaussianBlur in="erode" stdDeviation="4" result="blur"></feGaussianBlur><feOffset in="blur" dx="2" dy="2" result="offset"></feOffset><feComposite operator="atop" in="offset" in2="black" result="merge"></feComposite><feComposite operator="in" in="merge" in2="SourceGraphic" result="inner-shadow"></feComposite><feGaussianBlur in="SourceGraphic" stdDeviation="2.5" result="shadow1"></feGaussianBlur><feOffset in="shadow1" dx="0" dy="5" result="shadow"></feOffset><feSpecularLighting in="SourceGraphic" result="specular" surfaceScale="1.5" specularConstant="100" specularExponent="10" lighting-color="#fff"><fePointLight x="250" y="-300" z="-400"></fePointLight></feSpecularLighting><feGaussianBlur in="specular" stdDeviation="1" result="specular2"></feGaussianBlur><feComposite operator="in" in="specular2" in2="SourceAlpha" result="specular3"></feComposite><feMerge result="merge"><feMergeNode in="border"></feMergeNode><feMergeNode in="inner-shadow"></feMergeNode><feMergeNode in="specular3"></feMergeNode></feMerge><feComponentTransfer in="merge" result="final"><feFuncA type="linear" slope="0.9" intercept="0"></feFuncA></feComponentTransfer><feMerge><feMergeNode in="shadow"></feMergeNode><feMergeNode in="final"></feMergeNode></feMerge></filter></defs><g filter="url(#editing-crystal)"><g transform="translate(183.7871825993061, 96.97718620300293)"><path d="M26.11-42.69L26.11-42.69L26.11-42.69Q41.79-42.69 41.79-31.62L41.79-31.62L41.79-31.62Q41.79-25.54 37.89-21.89L37.89-21.89L37.89-21.89Q34.05-18.24 27.33-18.24L27.33-18.24L27.33-18.24Q24.19-18.24 21.76-20.03L21.76-20.03L21.76-20.03Q20.61-20.80 19.84-21.82L19.84-21.82L19.84-21.82Q24.51-21.82 26.98-24.67L26.98-24.67L26.98-24.67Q29.44-27.52 29.44-33.09L29.44-33.09L29.44-33.09Q29.44-38.66 23.94-38.66L23.94-38.66L22.40-38.66L22.40-38.66Q22.02-38.66 21.70-38.59L21.70-38.59L14.34 0L0.45 0L8.32-41.92L8.32-41.92Q15.17-42.56 19.14-42.62L19.14-42.62L19.14-42.62Q23.10-42.69 26.11-42.69ZM56.06 1.28L56.06 1.28L56.06 1.28Q41.98 1.28 41.98-11.97L41.98-11.97L41.98-11.97Q41.98-21.38 47.17-27.46L47.17-27.46L47.17-27.46Q52.67-33.92 62.21-33.92L62.21-33.92L62.21-33.92Q69.12-33.92 72.64-30.72L72.64-30.72L72.64-30.72Q76.16-27.52 76.16-20.80L76.16-20.80L76.16-20.80Q76.16-10.56 70.66-4.61L70.66-4.61L70.66-4.61Q65.28 1.28 56.06 1.28ZM57.73-26.56L57.73-26.56L57.73-26.56Q56.96-24.83 56.35-22.24L56.35-22.24L56.35-22.24Q55.74-19.65 54.98-15.55L54.98-15.55L54.98-15.55Q54.21-11.46 54.21-6.40L54.21-6.40L54.21-6.40Q54.21-4.74 54.75-3.65L54.75-3.65L54.75-3.65Q55.30-2.56 56.77-2.56L56.77-2.56L56.77-2.56Q58.24-2.56 59.17-3.26L59.17-3.26L59.17-3.26Q60.10-3.97 60.80-5.63L60.80-5.63L60.80-5.63Q62.08-8.58 63.10-14.05L63.10-14.05L63.10-14.05Q64.13-19.52 64.22-21.89L64.22-21.89L64.22-21.89Q64.32-24.26 64.32-26.02L64.32-26.02L64.32-26.02Q64.32-27.78 63.81-28.93L63.81-28.93L63.81-28.93Q63.30-30.08 61.86-30.08L61.86-30.08L61.86-30.08Q60.42-30.08 59.46-29.18L59.46-29.18L59.46-29.18Q58.50-28.29 57.73-26.56ZM99.07-22.46L99.07-22.46L99.07-22.46Q99.97-24.83 99.97-26.88L99.97-26.88L99.97-26.88Q99.97-30.66 96.90-30.66L96.90-30.66L96.90-30.66Q95.30-30.66 93.98-29.22L93.98-29.22L93.98-29.22Q92.67-27.78 92.67-25.98L92.67-25.98L92.67-25.98Q92.67-24.70 93.70-23.68L93.70-23.68L93.70-23.68Q95.17-22.27 98.94-19.97L98.94-19.97L98.94-19.97Q102.72-17.66 104.16-15.78L104.16-15.78L104.16-15.78Q105.60-13.89 105.60-11.30L105.60-11.30L105.60-11.30Q105.60-8.70 104.35-6.34L104.35-6.34L104.35-6.34Q103.10-3.97 100.86-2.30L100.86-2.30L100.86-2.30Q96.06 1.28 88.38 1.28L88.38 1.28L88.38 1.28Q84.22 1.28 81.02-0.90L81.02-0.90L81.02-0.90Q77.82-3.01 77.82-5.50L77.82-5.50L77.82-5.50Q77.82-8 79.65-9.47L79.65-9.47L79.65-9.47Q81.47-10.94 84.16-10.94L84.16-10.94L84.16-10.94Q86.85-10.94 88.51-9.92L88.51-9.92L88.51-9.92Q87.68-7.81 87.68-6.40L87.68-6.40L87.68-6.40Q87.68-2.18 91.26-2.18L91.26-2.18L91.26-2.18Q92.80-2.18 93.82-3.14L93.82-3.14L93.82-3.14Q94.85-4.10 94.85-5.76L94.85-5.76L94.85-5.76Q94.85-9.02 89.34-12.48L89.34-12.48L89.34-12.48Q84.86-15.42 83.84-16.58L83.84-16.58L83.84-16.58Q82.11-18.62 82.11-21.18L82.11-21.18L82.11-21.18Q82.11-23.74 83.33-26.18L83.33-26.18L83.33-26.18Q84.54-28.61 86.78-30.34L86.78-30.34L86.78-30.34Q91.46-33.92 99.58-33.92L99.58-33.92L99.58-33.92Q103.74-33.92 106.21-32.26L106.21-32.26L106.21-32.26Q108.67-30.59 108.67-27.78L108.67-27.78L108.67-27.78Q108.67-24.96 106.98-23.36L106.98-23.36L106.98-23.36Q105.28-21.76 102.21-21.76L102.21-21.76L102.21-21.76Q100.10-21.76 99.07-22.46ZM112.06-6.40L112.06-6.40L112.06-6.40Q112.06-8.13 112.96-12.48L112.96-12.48L116.35-29.76L112.58-29.76L112.83-31.68L112.83-31.68Q120.51-33.98 127.94-39.62L127.94-39.62L131.01-39.62L129.47-32.64L134.46-32.64L133.89-29.76L128.96-29.76L125.70-12.48L125.70-12.48Q124.86-8.51 124.86-7.17L124.86-7.17L124.86-7.17Q124.86-4.10 127.55-3.46L127.55-3.46L127.55-3.46Q126.91-1.28 124.61 0L124.61 0L124.61 0Q122.30 1.28 119.04 1.28L119.04 1.28L119.04 1.28Q115.78 1.28 113.92-0.77L113.92-0.77L113.92-0.77Q112.06-2.82 112.06-6.40Z" fill="#000000" stroke="#88e0eb" stroke-width="1.5"></path></g></g><style>text {
  font-size: 64px;
  font-family: Arial Black;
  dominant-baseline: central;
  text-anchor: middle;
}</style></svg>