<svg width="504.54248046875px" height="122.021240234375px" xmlns="http://www.w3.org/2000/svg" viewBox="-2.271240234375 13.9893798828125 504.54248046875 122.021240234375" style="background:#444" preserveAspectRatio="xMidYMid"><defs><filter id="editing-crystal" x="-100%" y="-100%" width="300%" height="300%"><feMorphology operator="dilate" radius="2" in="SourceGraphic" result="border"></feMorphology><feFlood flood-color="#fff" result="black"></feFlood><feMorphology operator="dilate" radius="2" in="SourceGraphic" result="erode"></feMorphology><feGaussianBlur in="erode" stdDeviation="4" result="blur"></feGaussianBlur><feOffset in="blur" dx="2" dy="2" result="offset"></feOffset><feComposite operator="atop" in="offset" in2="black" result="merge"></feComposite><feComposite operator="in" in="merge" in2="SourceGraphic" result="inner-shadow"></feComposite><feGaussianBlur in="SourceGraphic" stdDeviation="2.5" result="shadow1"></feGaussianBlur><feOffset in="shadow1" dx="0" dy="5" result="shadow"></feOffset><feSpecularLighting in="SourceGraphic" result="specular" surfaceScale="1.5" specularConstant="100" specularExponent="10" lighting-color="#fff"><fePointLight x="250" y="-300" z="-400"></fePointLight></feSpecularLighting><feGaussianBlur in="specular" stdDeviation="1" result="specular2"></feGaussianBlur><feComposite operator="in" in="specular2" in2="SourceAlpha" result="specular3"></feComposite><feMerge result="merge"><feMergeNode in="border"></feMergeNode><feMergeNode in="inner-shadow"></feMergeNode><feMergeNode in="specular3"></feMergeNode></feMerge><feComponentTransfer in="merge" result="final"><feFuncA type="linear" slope="0.9" intercept="0"></feFuncA></feComponentTransfer><feMerge><feMergeNode in="shadow"></feMergeNode><feMergeNode in="final"></feMergeNode></feMerge></filter></defs><g filter="url(#editing-crystal)"><g transform="translate(71.56500482559204, 104.75218772888184)"><path d="M2.69-39.68L2.69-39.68L2.69-39.68Q3.58-41.47 5.54-42.46L5.54-42.46L5.54-42.46Q7.49-43.46 10.18-43.46L10.18-43.46L10.18-43.46Q14.40-43.46 16.93-40.42L16.93-40.42L16.93-40.42Q19.46-37.38 19.46-30.72L19.46-30.72L19.46-7.87L34.11-42.18L41.66-42.18L43.39-9.79L43.20-7.94L58.43-42.18L67.20-42.18L46.72 0L33.09 0L31.81-19.46L23.36 0L7.94 0L6.02-30.72L6.02-30.72Q5.82-34.18 4.90-36.45L4.90-36.45L4.90-36.45Q3.97-38.72 2.69-39.68ZM79.81-3.52L79.81-3.52L79.81-3.52Q77.82 1.28 71.49 1.28L71.49 1.28L71.49 1.28Q68.22 1.28 66.18-0.96L66.18-0.96L66.18-0.96Q64.45-2.94 64.45-4.93L64.45-4.93L64.45-4.93Q64.45-10.11 66.82-20.22L66.82-20.22L69.18-32.64L82.18-33.92L78.27-13.70L78.27-13.70Q77.18-8.96 77.18-7.30L77.18-7.30L77.18-7.30Q77.18-3.65 79.81-3.52ZM70.34-41.54L70.34-41.54L70.34-41.54Q70.34-44.03 72.42-45.38L72.42-45.38L72.42-45.38Q74.50-46.72 77.50-46.72L77.50-46.72L77.50-46.72Q80.51-46.72 82.34-45.38L82.34-45.38L82.34-45.38Q84.16-44.03 84.16-41.54L84.16-41.54L84.16-41.54Q84.16-39.04 82.14-37.76L82.14-37.76L82.14-37.76Q80.13-36.48 77.12-36.48L77.12-36.48L77.12-36.48Q74.11-36.48 72.22-37.76L72.22-37.76L72.22-37.76Q70.34-39.04 70.34-41.54ZM101.76-30.34L101.76-30.34L101.76-30.34Q105.22-33.92 112.51-33.92L112.51-33.92L112.51-33.92Q116.54-33.92 118.75-31.78L118.75-31.78L118.75-31.78Q120.96-29.63 120.96-25.70L120.96-25.70L120.96-25.70Q120.96-21.76 118.75-18.98L118.75-18.98L118.75-18.98Q116.54-16.19 112.45-15.04L112.45-15.04L112.45-15.04Q112.77-13.76 113.22-12.42L113.22-12.42L114.11-9.86L114.11-9.86Q115.33-6.59 116.29-5.44L116.29-5.44L116.29-5.44Q117.25-4.29 118.53-3.90L118.53-3.90L118.53-3.90Q117.82-1.28 115.26 0.13L115.26 0.13L115.26 0.13Q113.22 1.28 110.40 1.28L110.40 1.28L110.40 1.28Q102.14 1.28 101.06-11.46L101.06-11.46L101.06-11.46Q100.86-13.25 100.86-15.04L100.86-15.04L100.86-15.04Q104.06-15.94 106.30-18.94L106.30-18.94L106.30-18.94Q108.54-21.95 108.54-25.47L108.54-25.47L108.54-25.47Q108.54-28.99 106.05-28.99L106.05-28.99L106.05-28.99Q104.26-28.99 102.85-27.01L102.85-27.01L102.85-27.01Q101.44-25.02 100.80-21.63L100.80-21.63L96.58 0L83.65 1.28L92.61-44.80L105.47-46.08L104-38.46L104-38.46Q103.04-33.09 101.76-30.34ZM139.26-3.52L139.26-3.52L139.26-3.52Q137.28 1.28 130.94 1.28L130.94 1.28L130.94 1.28Q127.68 1.28 125.63-0.96L125.63-0.96L125.63-0.96Q123.90-2.94 123.90-4.93L123.90-4.93L123.90-4.93Q123.90-10.11 126.27-20.22L126.27-20.22L128.64-32.64L141.63-33.92L137.73-13.70L137.73-13.70Q136.64-8.96 136.64-7.30L136.64-7.30L136.64-7.30Q136.64-3.65 139.26-3.52ZM129.79-41.54L129.79-41.54L129.79-41.54Q129.79-44.03 131.87-45.38L131.87-45.38L131.87-45.38Q133.95-46.72 136.96-46.72L136.96-46.72L136.96-46.72Q139.97-46.72 141.79-45.38L141.79-45.38L141.79-45.38Q143.62-44.03 143.62-41.54L143.62-41.54L143.62-41.54Q143.62-39.04 141.60-37.76L141.60-37.76L141.60-37.76Q139.58-36.48 136.58-36.48L136.58-36.48L136.58-36.48Q133.57-36.48 131.68-37.76L131.68-37.76L131.68-37.76Q129.79-39.04 129.79-41.54ZM174.53-4.38L174.53-4.38L174.53-4.38Q171.84-1.66 168.16-0.19L168.16-0.19L168.16-0.19Q164.48 1.28 160.83 1.28L160.83 1.28L160.83 1.28Q157.18 1.28 155.90 0.64L155.90 0.64L153.92 11.52L140.93 12.80L149.76-32.64L160.19-33.73L159.36-29.31L159.36-29.31Q162.05-33.86 167.62-33.86L167.62-33.86L167.62-33.86Q173.89-33.86 177.22-29.82L177.22-29.82L177.22-29.82Q180.16-26.18 180.16-20.61L180.16-20.61L180.16-20.61Q180.16-15.04 178.69-11.07L178.69-11.07L178.69-11.07Q177.22-7.10 174.53-4.38ZM160.06-22.34L156.67-3.58L156.67-3.58Q158.02-2.43 159.68-2.43L159.68-2.43L159.68-2.43Q161.34-2.43 162.30-3.07L162.30-3.07L162.30-3.07Q163.26-3.71 163.97-4.99L163.97-4.99L163.97-4.99Q165.89-8.45 167.42-18.94L167.42-18.94L167.42-18.94Q167.87-22.02 167.87-25.02L167.87-25.02L167.87-25.02Q167.87-28.03 167.20-28.99L167.20-28.99L167.20-28.99Q166.53-29.95 165.25-29.95L165.25-29.95L165.25-29.95Q161.34-29.95 160.06-22.34L160.06-22.34ZM209.92-10.82L209.92-10.82L209.92-10.82Q211.52-9.73 211.52-7.33L211.52-7.33L211.52-7.33Q211.52-4.93 210.30-3.39L210.30-3.39L210.30-3.39Q209.09-1.86 207.10-0.83L207.10-0.83L207.10-0.83Q203.01 1.28 198.59 1.28L198.59 1.28L198.59 1.28Q194.18 1.28 191.58 0.32L191.58 0.32L191.58 0.32Q188.99-0.64 187.26-2.43L187.26-2.43L187.26-2.43Q183.87-5.82 183.87-12.03L183.87-12.03L183.87-12.03Q183.87-21.70 189.12-27.58L189.12-27.58L189.12-27.58Q194.75-33.92 204.54-33.92L204.54-33.92L204.54-33.92Q210.62-33.92 213.63-31.36L213.63-31.36L213.63-31.36Q215.87-29.44 215.87-26.30L215.87-26.30L215.87-26.30Q215.87-15.04 196.42-15.04L196.42-15.04L196.42-15.04Q196.16-13.38 196.16-11.97L196.16-11.97L196.16-11.97Q196.16-9.02 197.47-7.90L197.47-7.90L197.47-7.90Q198.78-6.78 201.22-6.78L201.22-6.78L201.22-6.78Q203.65-6.78 206.24-7.90L206.24-7.90L206.24-7.90Q208.83-9.02 209.92-10.82ZM196.86-17.79L196.86-17.79L196.86-17.79Q201.41-17.79 204.03-20.61L204.03-20.61L204.03-20.61Q206.66-23.30 206.66-27.58L206.66-27.58L206.66-27.58Q206.66-29.06 206.11-29.86L206.11-29.86L206.11-29.86Q205.57-30.66 204.48-30.66L204.48-30.66L204.48-30.66Q203.39-30.66 202.46-30.24L202.46-30.24L202.46-30.24Q201.54-29.82 200.58-28.42L200.58-28.42L200.58-28.42Q198.21-25.22 196.86-17.79ZM219.07-6.40L219.07-6.40L219.07-6.40Q219.07-8.13 219.97-12.48L219.97-12.48L223.36-29.76L219.58-29.76L219.84-31.68L219.84-31.68Q227.52-33.98 234.94-39.62L234.94-39.62L238.02-39.62L236.48-32.64L241.47-32.64L240.90-29.76L235.97-29.76L232.70-12.48L232.70-12.48Q231.87-8.51 231.87-7.17L231.87-7.17L231.87-7.17Q231.87-4.10 234.56-3.46L234.56-3.46L234.56-3.46Q233.92-1.28 231.62 0L231.62 0L231.62 0Q229.31 1.28 226.05 1.28L226.05 1.28L226.05 1.28Q222.78 1.28 220.93-0.77L220.93-0.77L220.93-0.77Q219.07-2.82 219.07-6.40ZM266.82-10.82L266.82-10.82L266.82-10.82Q268.42-9.73 268.42-7.33L268.42-7.33L268.42-7.33Q268.42-4.93 267.20-3.39L267.20-3.39L267.20-3.39Q265.98-1.86 264-0.83L264-0.83L264-0.83Q259.90 1.28 255.49 1.28L255.49 1.28L255.49 1.28Q251.07 1.28 248.48 0.32L248.48 0.32L248.48 0.32Q245.89-0.64 244.16-2.43L244.16-2.43L244.16-2.43Q240.77-5.82 240.77-12.03L240.77-12.03L240.77-12.03Q240.77-21.70 246.02-27.58L246.02-27.58L246.02-27.58Q251.65-33.92 261.44-33.92L261.44-33.92L261.44-33.92Q267.52-33.92 270.53-31.36L270.53-31.36L270.53-31.36Q272.77-29.44 272.77-26.30L272.77-26.30L272.77-26.30Q272.77-15.04 253.31-15.04L253.31-15.04L253.31-15.04Q253.06-13.38 253.06-11.97L253.06-11.97L253.06-11.97Q253.06-9.02 254.37-7.90L254.37-7.90L254.37-7.90Q255.68-6.78 258.11-6.78L258.11-6.78L258.11-6.78Q260.54-6.78 263.14-7.90L263.14-7.90L263.14-7.90Q265.73-9.02 266.82-10.82ZM253.76-17.79L253.76-17.79L253.76-17.79Q258.30-17.79 260.93-20.61L260.93-20.61L260.93-20.61Q263.55-23.30 263.55-27.58L263.55-27.58L263.55-27.58Q263.55-29.06 263.01-29.86L263.01-29.86L263.01-29.86Q262.46-30.66 261.38-30.66L261.38-30.66L261.38-30.66Q260.29-30.66 259.36-30.24L259.36-30.24L259.36-30.24Q258.43-29.82 257.47-28.42L257.47-28.42L257.47-28.42Q255.10-25.22 253.76-17.79ZM294.98-17.98L294.98-17.98L294.98-17.98Q297.28-22.08 297.28-26.24L297.28-26.24L297.28-26.24Q297.28-28.99 295.30-28.99L295.30-28.99L295.30-28.99Q293.76-28.99 292.16-26.37L292.16-26.37L292.16-26.37Q290.50-23.74 289.98-20.35L289.98-20.35L286.66 0L273.41 1.28L279.94-32.64L290.50-33.92L289.34-27.46L289.34-27.46Q292.48-33.92 299.52-33.92L299.52-33.92L299.52-33.92Q303.23-33.92 305.25-32L305.25-32L305.25-32Q307.26-30.08 307.26-26.14L307.26-26.14L307.26-26.14Q307.26-22.21 304.67-19.71L304.67-19.71L304.67-19.71Q302.08-17.22 297.66-17.22L297.66-17.22L297.66-17.22Q295.74-17.22 294.98-17.98ZM321.34-1.60L320.96-9.47L328.96-15.62L333.95-19.71L333.95-19.71Q336.51-21.89 338.37-23.81L338.37-23.81L338.37-23.81Q341.76-27.20 341.76-30.46L341.76-30.46L341.76-30.46Q341.76-32.38 340.51-33.41L340.51-33.41L340.51-33.41Q339.26-34.43 337.44-34.43L337.44-34.43L337.44-34.43Q335.62-34.43 334.30-34.02L334.30-34.02L334.30-34.02Q332.99-33.60 331.84-32.90L331.84-32.90L331.84-32.90Q329.41-31.30 328.26-28.86L328.26-28.86L328.26-28.86Q326.66-28.93 325.60-30.27L325.60-30.27L325.60-30.27Q324.54-31.62 324.54-33.57L324.54-33.57L324.54-33.57Q324.54-35.52 325.76-37.34L325.76-37.34L325.76-37.34Q326.98-39.17 329.15-40.58L329.15-40.58L329.15-40.58Q333.89-43.52 340.38-43.52L340.38-43.52L340.38-43.52Q346.88-43.52 350.53-40.70L350.53-40.70L350.53-40.70Q354.18-37.89 354.18-33.09L354.18-33.09L354.18-33.09Q354.18-29.50 352.42-26.24L352.42-26.24L352.42-26.24Q350.66-22.98 345.98-19.65L345.98-19.65L339.07-14.78L334.91-12.03L329.60-8.77L331.84-8.51L331.84-8.51Q333.38-8.32 336.06-8.32L336.06-8.32L336.06-8.32Q338.75-8.32 340.99-8.61L340.99-8.61L340.99-8.61Q343.23-8.90 345.15-9.47L345.15-9.47L345.15-9.47Q349.38-10.62 350.72-12.22L350.72-12.22L350.72-12.22Q351.42-11.71 351.97-10.40L351.97-10.40L351.97-10.40Q352.51-9.09 352.51-7.49L352.51-7.49L352.51-7.49Q352.51-2.69 348.86-0.70L348.86-0.70L348.86-0.70Q345.22 1.28 337.73 1.28L337.73 1.28L337.73 1.28Q333.82 1.28 328.64 0.16L328.64 0.16L328.64 0.16Q323.46-0.96 321.34-1.60L321.34-1.60Z" fill="#000000" stroke="#88e0eb" stroke-width="1.5"></path></g></g><style>text {
  font-size: 64px;
  font-family: Arial Black;
  dominant-baseline: central;
  text-anchor: middle;
}</style></svg>