<svg width="1534.18994140625px" height="336.8375px" xmlns="http://www.w3.org/2000/svg" viewBox="-517.094970703125 -93.41874999999999 1534.18994140625 336.8375" style="background: none;" preserveAspectRatio="xMidYMid"><defs><linearGradient id="editing-glowing-gradient" x1="0.8146601955249185" x2="0.18533980447508147" y1="0.8885729807284856" y2="0.11142701927151444"><stop offset="0" stop-color="#67ff43"></stop><stop offset="1" stop-color="#90ffff"></stop></linearGradient><filter id="editing-glowing" x="-100%" y="-100%" width="300%" height="300%"><feGaussianBlur in="SourceGraphic" result="blur" stdDeviation="10"></feGaussianBlur><feMerge><feMergeNode in="blur"></feMergeNode><feMergeNode in="SourceGraphic"></feMergeNode></feMerge></filter></defs><g filter="url(#editing-glowing)"><g transform="translate(-307.6000118255615, 168)"><path d="M8.40-124L8.40-124L8.40-124Q11.20-129.60 17.30-132.70L17.30-132.70L17.30-132.70Q23.40-135.80 31.80-135.80L31.80-135.80L31.80-135.80Q45-135.80 52.90-126.30L52.90-126.30L52.90-126.30Q60.80-116.80 60.80-96L60.80-96L60.80-24.60L106.60-131.80L130.20-131.80L135.60-30.60L135-24.80L182.60-131.80L210-131.80L146 0L103.40 0L99.40-60.80L73 0L24.80 0L18.80-96L18.80-96Q18.20-106.80 15.30-113.90L15.30-113.90L15.30-113.90Q12.40-121 8.40-124ZM249.40-11L249.40-11L249.40-11Q243.20 4 223.40 4L223.40 4L223.40 4Q213.20 4 206.80-3L206.80-3L206.80-3Q201.40-9.20 201.40-15.40L201.40-15.40L201.40-15.40Q201.40-31.60 208.80-63.20L208.80-63.20L216.20-102L256.80-106L244.60-42.80L244.60-42.80Q241.20-28 241.20-22.80L241.20-22.80L241.20-22.80Q241.20-11.40 249.40-11ZM219.80-129.80L219.80-129.80L219.80-129.80Q219.80-137.60 226.30-141.80L226.30-141.80L226.30-141.80Q232.80-146 242.20-146L242.20-146L242.20-146Q251.60-146 257.30-141.80L257.30-141.80L257.30-141.80Q263-137.60 263-129.80L263-129.80L263-129.80Q263-122 256.70-118L256.70-118L256.70-118Q250.40-114 241-114L241-114L241-114Q231.60-114 225.70-118L225.70-118L225.70-118Q219.80-122 219.80-129.80ZM318-94.80L318-94.80L318-94.80Q328.80-106 351.60-106L351.60-106L351.60-106Q364.20-106 371.10-99.30L371.10-99.30L371.10-99.30Q378-92.60 378-80.30L378-80.30L378-80.30Q378-68 371.10-59.30L371.10-59.30L371.10-59.30Q364.20-50.60 351.40-47L351.40-47L351.40-47Q352.40-43 353.80-38.80L353.80-38.80L356.60-30.80L356.60-30.80Q360.40-20.60 363.40-17L363.40-17L363.40-17Q366.40-13.40 370.40-12.20L370.40-12.20L370.40-12.20Q368.20-4 360.20 0.40L360.20 0.40L360.20 0.40Q353.80 4 345 4L345 4L345 4Q319.20 4 315.80-35.80L315.80-35.80L315.80-35.80Q315.20-41.40 315.20-47L315.20-47L315.20-47Q325.20-49.80 332.20-59.20L332.20-59.20L332.20-59.20Q339.20-68.60 339.20-79.60L339.20-79.60L339.20-79.60Q339.20-90.60 331.40-90.60L331.40-90.60L331.40-90.60Q325.80-90.60 321.40-84.40L321.40-84.40L321.40-84.40Q317-78.20 315-67.60L315-67.60L301.80 0L261.40 4L289.40-140L329.60-144L325-120.20L325-120.20Q322-103.40 318-94.80ZM435.20-11L435.20-11L435.20-11Q429 4 409.20 4L409.20 4L409.20 4Q399 4 392.60-3L392.60-3L392.60-3Q387.20-9.20 387.20-15.40L387.20-15.40L387.20-15.40Q387.20-31.60 394.60-63.20L394.60-63.20L402-102L442.60-106L430.40-42.80L430.40-42.80Q427-28 427-22.80L427-22.80L427-22.80Q427-11.40 435.20-11ZM405.60-129.80L405.60-129.80L405.60-129.80Q405.60-137.60 412.10-141.80L412.10-141.80L412.10-141.80Q418.60-146 428-146L428-146L428-146Q437.40-146 443.10-141.80L443.10-141.80L443.10-141.80Q448.80-137.60 448.80-129.80L448.80-129.80L448.80-129.80Q448.80-122 442.50-118L442.50-118L442.50-118Q436.20-114 426.80-114L426.80-114L426.80-114Q417.40-114 411.50-118L411.50-118L411.50-118Q405.60-122 405.60-129.80ZM545.40-13.70L545.40-13.70L545.40-13.70Q537-5.20 525.50-0.60L525.50-0.60L525.50-0.60Q514 4 502.60 4L502.60 4L502.60 4Q491.20 4 487.20 2L487.20 2L481 36L440.40 40L468-102L500.60-105.40L498-91.60L498-91.60Q506.40-105.80 523.80-105.80L523.80-105.80L523.80-105.80Q543.40-105.80 553.80-93.20L553.80-93.20L553.80-93.20Q563-81.80 563-64.40L563-64.40L563-64.40Q563-47 558.40-34.60L558.40-34.60L558.40-34.60Q553.80-22.20 545.40-13.70ZM500.20-69.80L489.60-11.20L489.60-11.20Q493.80-7.60 499-7.60L499-7.60L499-7.60Q504.20-7.60 507.20-9.60L507.20-9.60L507.20-9.60Q510.20-11.60 512.40-15.60L512.40-15.60L512.40-15.60Q518.40-26.40 523.20-59.20L523.20-59.20L523.20-59.20Q524.60-68.80 524.60-78.20L524.60-78.20L524.60-78.20Q524.60-87.60 522.50-90.60L522.50-90.60L522.50-90.60Q520.40-93.60 516.40-93.60L516.40-93.60L516.40-93.60Q504.20-93.60 500.20-69.80L500.20-69.80ZM656-33.80L656-33.80L656-33.80Q661-30.40 661-22.90L661-22.90L661-22.90Q661-15.40 657.20-10.60L657.20-10.60L657.20-10.60Q653.40-5.80 647.20-2.60L647.20-2.60L647.20-2.60Q634.40 4 620.60 4L620.60 4L620.60 4Q606.80 4 598.70 1L598.70 1L598.70 1Q590.60-2 585.20-7.60L585.20-7.60L585.20-7.60Q574.60-18.20 574.60-37.60L574.60-37.60L574.60-37.60Q574.60-67.80 591-86.20L591-86.20L591-86.20Q608.60-106 639.20-106L639.20-106L639.20-106Q658.20-106 667.60-98L667.60-98L667.60-98Q674.60-92 674.60-82.20L674.60-82.20L674.60-82.20Q674.60-47 613.80-47L613.80-47L613.80-47Q613-41.80 613-37.40L613-37.40L613-37.40Q613-28.20 617.10-24.70L617.10-24.70L617.10-24.70Q621.20-21.20 628.80-21.20L628.80-21.20L628.80-21.20Q636.40-21.20 644.50-24.70L644.50-24.70L644.50-24.70Q652.60-28.20 656-33.80ZM615.20-55.60L615.20-55.60L615.20-55.60Q629.40-55.60 637.60-64.40L637.60-64.40L637.60-64.40Q645.80-72.80 645.80-86.20L645.80-86.20L645.80-86.20Q645.80-90.80 644.10-93.30L644.10-93.30L644.10-93.30Q642.40-95.80 639-95.80L639-95.80L639-95.80Q635.60-95.80 632.70-94.50L632.70-94.50L632.70-94.50Q629.80-93.20 626.80-88.80L626.80-88.80L626.80-88.80Q619.40-78.80 615.20-55.60ZM684.60-20L684.60-20L684.60-20Q684.60-25.40 687.40-39L687.40-39L698-93L686.20-93L687-99L687-99Q711-106.20 734.20-123.80L734.20-123.80L743.80-123.80L739-102L754.60-102L752.80-93L737.40-93L727.20-39L727.20-39Q724.60-26.60 724.60-22.40L724.60-22.40L724.60-22.40Q724.60-12.80 733-10.80L733-10.80L733-10.80Q731-4 723.80 0L723.80 0L723.80 0Q716.60 4 706.40 4L706.40 4L706.40 4Q696.20 4 690.40-2.40L690.40-2.40L690.40-2.40Q684.60-8.80 684.60-20ZM833.80-33.80L833.80-33.80L833.80-33.80Q838.80-30.40 838.80-22.90L838.80-22.90L838.80-22.90Q838.80-15.40 835.00-10.60L835.00-10.60L835.00-10.60Q831.20-5.80 825.00-2.60L825.00-2.60L825.00-2.60Q812.20 4 798.40 4L798.40 4L798.40 4Q784.60 4 776.50 1L776.50 1L776.50 1Q768.40-2 763.00-7.60L763.00-7.60L763.00-7.60Q752.40-18.20 752.40-37.60L752.40-37.60L752.40-37.60Q752.40-67.80 768.80-86.20L768.80-86.20L768.80-86.20Q786.40-106 817.00-106L817.00-106L817.00-106Q836.00-106 845.40-98L845.40-98L845.40-98Q852.40-92 852.40-82.20L852.40-82.20L852.40-82.20Q852.40-47 791.60-47L791.60-47L791.60-47Q790.80-41.80 790.80-37.40L790.80-37.40L790.80-37.40Q790.80-28.20 794.90-24.70L794.90-24.70L794.90-24.70Q799.00-21.20 806.60-21.20L806.60-21.20L806.60-21.20Q814.20-21.20 822.30-24.70L822.30-24.70L822.30-24.70Q830.40-28.20 833.80-33.80ZM793.00-55.60L793.00-55.60L793.00-55.60Q807.20-55.60 815.40-64.40L815.40-64.40L815.40-64.40Q823.60-72.80 823.60-86.20L823.60-86.20L823.60-86.20Q823.60-90.80 821.90-93.30L821.90-93.30L821.90-93.30Q820.20-95.80 816.80-95.80L816.80-95.80L816.80-95.80Q813.40-95.80 810.50-94.50L810.50-94.50L810.50-94.50Q807.60-93.20 804.60-88.80L804.60-88.80L804.60-88.80Q797.20-78.80 793.00-55.60ZM921.80-56.20L921.80-56.20L921.80-56.20Q929.00-69 929.00-82L929.00-82L929.00-82Q929.00-90.60 922.80-90.60L922.80-90.60L922.80-90.60Q918.00-90.60 913.00-82.40L913.00-82.40L913.00-82.40Q907.80-74.20 906.20-63.60L906.20-63.60L895.80 0L854.40 4L874.80-102L907.80-106L904.20-85.80L904.20-85.80Q914.00-106 936.00-106L936.00-106L936.00-106Q947.60-106 953.90-100L953.90-100L953.90-100Q960.20-94 960.20-81.70L960.20-81.70L960.20-81.70Q960.20-69.40 952.10-61.60L952.10-61.60L952.10-61.60Q944.00-53.80 930.20-53.80L930.20-53.80L930.20-53.80Q924.20-53.80 921.80-56.20ZM1004.20-5L1003.00-29.60L1028.00-48.80L1043.60-61.60L1043.60-61.60Q1051.60-68.40 1057.40-74.40L1057.40-74.40L1057.40-74.40Q1068.00-85 1068.00-95.20L1068.00-95.20L1068.00-95.20Q1068.00-101.20 1064.10-104.40L1064.10-104.40L1064.10-104.40Q1060.20-107.60 1054.50-107.60L1054.50-107.60L1054.50-107.60Q1048.80-107.60 1044.70-106.30L1044.70-106.30L1044.70-106.30Q1040.60-105 1037.00-102.80L1037.00-102.80L1037.00-102.80Q1029.40-97.80 1025.80-90.20L1025.80-90.20L1025.80-90.20Q1020.80-90.40 1017.50-94.60L1017.50-94.60L1017.50-94.60Q1014.20-98.80 1014.20-104.90L1014.20-104.90L1014.20-104.90Q1014.20-111 1018.00-116.70L1018.00-116.70L1018.00-116.70Q1021.80-122.40 1028.60-126.80L1028.60-126.80L1028.60-126.80Q1043.40-136 1063.70-136L1063.70-136L1063.70-136Q1084.00-136 1095.40-127.20L1095.40-127.20L1095.40-127.20Q1106.80-118.40 1106.80-103.40L1106.80-103.40L1106.80-103.40Q1106.80-92.20 1101.30-82L1101.30-82L1101.30-82Q1095.80-71.80 1081.20-61.40L1081.20-61.40L1059.60-46.20L1046.60-37.60L1030.00-27.40L1037.00-26.60L1037.00-26.60Q1041.80-26 1050.20-26L1050.20-26L1050.20-26Q1058.60-26 1065.60-26.90L1065.60-26.90L1065.60-26.90Q1072.60-27.80 1078.60-29.60L1078.60-29.60L1078.60-29.60Q1091.80-33.20 1096.00-38.20L1096.00-38.20L1096.00-38.20Q1098.20-36.60 1099.90-32.50L1099.90-32.50L1099.90-32.50Q1101.60-28.40 1101.60-23.40L1101.60-23.40L1101.60-23.40Q1101.60-8.40 1090.20-2.20L1090.20-2.20L1090.20-2.20Q1078.80 4 1055.40 4L1055.40 4L1055.40 4Q1043.20 4 1027.00 0.50L1027.00 0.50L1027.00 0.50Q1010.80-3 1004.20-5L1004.20-5Z" fill="url(#editing-glowing-gradient)"></path></g></g><style>text {
  font-size: 64px;
  font-family: Arial Black;
  dominant-baseline: central;
  text-anchor: middle;
}</style></svg>