<svg width="777.0950439453125px" height="178.43984375px" xmlns="http://www.w3.org/2000/svg" viewBox="-138.54752197265623 -14.219921874999997 777.0950439453125 178.43984375" style="background: none;" preserveAspectRatio="xMidYMid"><defs><linearGradient id="editing-glowing-gradient" x1="0.8146601955249185" x2="0.18533980447508147" y1="0.8885729807284856" y2="0.11142701927151444"><stop offset="0" stop-color="#67ff43"></stop><stop offset="1" stop-color="#90ffff"></stop></linearGradient><filter id="editing-glowing" x="-100%" y="-100%" width="300%" height="300%"><feGaussianBlur in="SourceGraphic" result="blur" stdDeviation="10"></feGaussianBlur><feMerge><feMergeNode in="blur"></feMergeNode><feMergeNode in="SourceGraphic"></feMergeNode></feMerge></filter></defs><g filter="url(#editing-glowing)"><g transform="translate(-28.80000591278076, 121.5)"><path d="M4.20-62L4.20-62L4.20-62Q5.60-64.80 8.65-66.35L8.65-66.35L8.65-66.35Q11.70-67.90 15.90-67.90L15.90-67.90L15.90-67.90Q22.50-67.90 26.45-63.15L26.45-63.15L26.45-63.15Q30.40-58.40 30.40-48L30.40-48L30.40-12.30L53.30-65.90L65.10-65.90L67.80-15.30L67.50-12.40L91.30-65.90L105-65.90L73 0L51.70 0L49.70-30.40L36.50 0L12.40 0L9.40-48L9.40-48Q9.10-53.40 7.65-56.95L7.65-56.95L7.65-56.95Q6.20-60.50 4.20-62ZM124.70-5.50L124.70-5.50L124.70-5.50Q121.60 2 111.70 2L111.70 2L111.70 2Q106.60 2 103.40-1.50L103.40-1.50L103.40-1.50Q100.70-4.60 100.70-7.70L100.70-7.70L100.70-7.70Q100.70-15.80 104.40-31.60L104.40-31.60L108.10-51L128.40-53L122.30-21.40L122.30-21.40Q120.60-14 120.60-11.40L120.60-11.40L120.60-11.40Q120.60-5.70 124.70-5.50ZM109.90-64.90L109.90-64.90L109.90-64.90Q109.90-68.80 113.15-70.90L113.15-70.90L113.15-70.90Q116.40-73 121.10-73L121.10-73L121.10-73Q125.80-73 128.65-70.90L128.65-70.90L128.65-70.90Q131.50-68.80 131.50-64.90L131.50-64.90L131.50-64.90Q131.50-61 128.35-59L128.35-59L128.35-59Q125.20-57 120.50-57L120.50-57L120.50-57Q115.80-57 112.85-59L112.85-59L112.85-59Q109.90-61 109.90-64.90ZM159-47.40L159-47.40L159-47.40Q164.40-53 175.80-53L175.80-53L175.80-53Q182.10-53 185.55-49.65L185.55-49.65L185.55-49.65Q189-46.30 189-40.15L189-40.15L189-40.15Q189-34 185.55-29.65L185.55-29.65L185.55-29.65Q182.10-25.30 175.70-23.50L175.70-23.50L175.70-23.50Q176.20-21.50 176.90-19.40L176.90-19.40L178.30-15.40L178.30-15.40Q180.20-10.30 181.70-8.50L181.70-8.50L181.70-8.50Q183.20-6.70 185.20-6.10L185.20-6.10L185.20-6.10Q184.10-2 180.10 0.20L180.10 0.20L180.10 0.20Q176.90 2 172.50 2L172.50 2L172.50 2Q159.60 2 157.90-17.90L157.90-17.90L157.90-17.90Q157.60-20.70 157.60-23.50L157.60-23.50L157.60-23.50Q162.60-24.90 166.10-29.60L166.10-29.60L166.10-29.60Q169.60-34.30 169.60-39.80L169.60-39.80L169.60-39.80Q169.60-45.30 165.70-45.30L165.70-45.30L165.70-45.30Q162.90-45.30 160.70-42.20L160.70-42.20L160.70-42.20Q158.50-39.10 157.50-33.80L157.50-33.80L150.90 0L130.70 2L144.70-70L164.80-72L162.50-60.10L162.50-60.10Q161-51.70 159-47.40ZM217.60-5.50L217.60-5.50L217.60-5.50Q214.50 2 204.60 2L204.60 2L204.60 2Q199.50 2 196.30-1.50L196.30-1.50L196.30-1.50Q193.60-4.60 193.60-7.70L193.60-7.70L193.60-7.70Q193.60-15.80 197.30-31.60L197.30-31.60L201-51L221.30-53L215.20-21.40L215.20-21.40Q213.50-14 213.50-11.40L213.50-11.40L213.50-11.40Q213.50-5.70 217.60-5.50ZM202.80-64.90L202.80-64.90L202.80-64.90Q202.80-68.80 206.05-70.90L206.05-70.90L206.05-70.90Q209.30-73 214-73L214-73L214-73Q218.70-73 221.55-70.90L221.55-70.90L221.55-70.90Q224.40-68.80 224.40-64.90L224.40-64.90L224.40-64.90Q224.40-61 221.25-59L221.25-59L221.25-59Q218.10-57 213.40-57L213.40-57L213.40-57Q208.70-57 205.75-59L205.75-59L205.75-59Q202.80-61 202.80-64.90ZM272.70-6.85L272.70-6.85L272.70-6.85Q268.50-2.60 262.75-0.30L262.75-0.30L262.75-0.30Q257 2 251.30 2L251.30 2L251.30 2Q245.60 2 243.60 1L243.60 1L240.50 18L220.20 20L234-51L250.30-52.70L249-45.80L249-45.80Q253.20-52.90 261.90-52.90L261.90-52.90L261.90-52.90Q271.70-52.90 276.90-46.60L276.90-46.60L276.90-46.60Q281.50-40.90 281.50-32.20L281.50-32.20L281.50-32.20Q281.50-23.50 279.20-17.30L279.20-17.30L279.20-17.30Q276.90-11.10 272.70-6.85ZM250.10-34.90L244.80-5.60L244.80-5.60Q246.90-3.80 249.50-3.80L249.50-3.80L249.50-3.80Q252.10-3.80 253.60-4.80L253.60-4.80L253.60-4.80Q255.10-5.80 256.20-7.80L256.20-7.80L256.20-7.80Q259.20-13.20 261.60-29.60L261.60-29.60L261.60-29.60Q262.30-34.40 262.30-39.10L262.30-39.10L262.30-39.10Q262.30-43.80 261.25-45.30L261.25-45.30L261.25-45.30Q260.20-46.80 258.20-46.80L258.20-46.80L258.20-46.80Q252.10-46.80 250.10-34.90L250.10-34.90ZM328-16.90L328-16.90L328-16.90Q330.50-15.20 330.50-11.45L330.50-11.45L330.50-11.45Q330.50-7.70 328.60-5.30L328.60-5.30L328.60-5.30Q326.70-2.90 323.60-1.30L323.60-1.30L323.60-1.30Q317.20 2 310.30 2L310.30 2L310.30 2Q303.40 2 299.35 0.50L299.35 0.50L299.35 0.50Q295.30-1 292.60-3.80L292.60-3.80L292.60-3.80Q287.30-9.10 287.30-18.80L287.30-18.80L287.30-18.80Q287.30-33.90 295.50-43.10L295.50-43.10L295.50-43.10Q304.30-53 319.60-53L319.60-53L319.60-53Q329.10-53 333.80-49L333.80-49L333.80-49Q337.30-46 337.30-41.10L337.30-41.10L337.30-41.10Q337.30-23.50 306.90-23.50L306.90-23.50L306.90-23.50Q306.50-20.90 306.50-18.70L306.50-18.70L306.50-18.70Q306.50-14.10 308.55-12.35L308.55-12.35L308.55-12.35Q310.60-10.60 314.40-10.60L314.40-10.60L314.40-10.60Q318.20-10.60 322.25-12.35L322.25-12.35L322.25-12.35Q326.30-14.10 328-16.90ZM307.60-27.80L307.60-27.80L307.60-27.80Q314.70-27.80 318.80-32.20L318.80-32.20L318.80-32.20Q322.90-36.40 322.90-43.10L322.90-43.10L322.90-43.10Q322.90-45.40 322.05-46.65L322.05-46.65L322.05-46.65Q321.20-47.90 319.50-47.90L319.50-47.90L319.50-47.90Q317.80-47.90 316.35-47.25L316.35-47.25L316.35-47.25Q314.90-46.60 313.40-44.40L313.40-44.40L313.40-44.40Q309.70-39.40 307.60-27.80ZM342.30-10L342.30-10L342.30-10Q342.30-12.70 343.70-19.50L343.70-19.50L349-46.50L343.10-46.50L343.50-49.50L343.50-49.50Q355.50-53.10 367.10-61.90L367.10-61.90L371.90-61.90L369.50-51L377.30-51L376.40-46.50L368.70-46.50L363.60-19.50L363.60-19.50Q362.30-13.30 362.30-11.20L362.30-11.20L362.30-11.20Q362.30-6.40 366.50-5.40L366.50-5.40L366.50-5.40Q365.50-2 361.90 0L361.90 0L361.90 0Q358.30 2 353.20 2L353.20 2L353.20 2Q348.10 2 345.20-1.20L345.20-1.20L345.20-1.20Q342.30-4.40 342.30-10ZM416.90-16.90L416.90-16.90L416.90-16.90Q419.40-15.20 419.40-11.45L419.40-11.45L419.40-11.45Q419.40-7.70 417.50-5.30L417.50-5.30L417.50-5.30Q415.60-2.90 412.50-1.30L412.50-1.30L412.50-1.30Q406.10 2 399.20 2L399.20 2L399.20 2Q392.30 2 388.25 0.50L388.25 0.50L388.25 0.50Q384.20-1 381.50-3.80L381.50-3.80L381.50-3.80Q376.20-9.10 376.20-18.80L376.20-18.80L376.20-18.80Q376.20-33.90 384.40-43.10L384.40-43.10L384.40-43.10Q393.20-53 408.50-53L408.50-53L408.50-53Q418.00-53 422.70-49L422.70-49L422.70-49Q426.20-46 426.20-41.10L426.20-41.10L426.20-41.10Q426.20-23.50 395.80-23.50L395.80-23.50L395.80-23.50Q395.40-20.90 395.40-18.70L395.40-18.70L395.40-18.70Q395.40-14.10 397.45-12.35L397.45-12.35L397.45-12.35Q399.50-10.60 403.30-10.60L403.30-10.60L403.30-10.60Q407.10-10.60 411.15-12.35L411.15-12.35L411.15-12.35Q415.20-14.10 416.90-16.90ZM396.50-27.80L396.50-27.80L396.50-27.80Q403.60-27.80 407.70-32.20L407.70-32.20L407.70-32.20Q411.80-36.40 411.80-43.10L411.80-43.10L411.80-43.10Q411.80-45.40 410.95-46.65L410.95-46.65L410.95-46.65Q410.10-47.90 408.40-47.90L408.40-47.90L408.40-47.90Q406.70-47.90 405.25-47.25L405.25-47.25L405.25-47.25Q403.80-46.60 402.30-44.40L402.30-44.40L402.30-44.40Q398.60-39.40 396.50-27.80ZM460.90-28.10L460.90-28.10L460.90-28.10Q464.50-34.50 464.50-41L464.50-41L464.50-41Q464.50-45.30 461.40-45.30L461.40-45.30L461.40-45.30Q459.00-45.30 456.50-41.20L456.50-41.20L456.50-41.20Q453.90-37.10 453.10-31.80L453.10-31.80L447.90 0L427.20 2L437.40-51L453.90-53L452.10-42.90L452.10-42.90Q457.00-53 468.00-53L468.00-53L468.00-53Q473.80-53 476.95-50L476.95-50L476.95-50Q480.10-47 480.10-40.85L480.10-40.85L480.10-40.85Q480.10-34.70 476.05-30.80L476.05-30.80L476.05-30.80Q472.00-26.90 465.10-26.90L465.10-26.90L465.10-26.90Q462.10-26.90 460.90-28.10ZM502.10-2.50L501.50-14.80L514.00-24.40L521.80-30.80L521.80-30.80Q525.80-34.20 528.70-37.20L528.70-37.20L528.70-37.20Q534.00-42.50 534.00-47.60L534.00-47.60L534.00-47.60Q534.00-50.60 532.05-52.20L532.05-52.20L532.05-52.20Q530.10-53.80 527.25-53.80L527.25-53.80L527.25-53.80Q524.40-53.80 522.35-53.15L522.35-53.15L522.35-53.15Q520.30-52.50 518.50-51.40L518.50-51.40L518.50-51.40Q514.70-48.90 512.90-45.10L512.90-45.10L512.90-45.10Q510.40-45.20 508.75-47.30L508.75-47.30L508.75-47.30Q507.10-49.40 507.10-52.45L507.10-52.45L507.10-52.45Q507.10-55.50 509.00-58.35L509.00-58.35L509.00-58.35Q510.90-61.20 514.30-63.40L514.30-63.40L514.30-63.40Q521.70-68 531.85-68L531.85-68L531.85-68Q542.00-68 547.70-63.60L547.70-63.60L547.70-63.60Q553.40-59.20 553.40-51.70L553.40-51.70L553.40-51.70Q553.40-46.10 550.65-41L550.65-41L550.65-41Q547.90-35.90 540.60-30.70L540.60-30.70L529.80-23.10L523.30-18.80L515.00-13.70L518.50-13.30L518.50-13.30Q520.90-13 525.10-13L525.10-13L525.10-13Q529.30-13 532.80-13.45L532.80-13.45L532.80-13.45Q536.30-13.90 539.30-14.80L539.30-14.80L539.30-14.80Q545.90-16.60 548.00-19.10L548.00-19.10L548.00-19.10Q549.10-18.30 549.95-16.25L549.95-16.25L549.95-16.25Q550.80-14.20 550.80-11.70L550.80-11.70L550.80-11.70Q550.80-4.20 545.10-1.10L545.10-1.10L545.10-1.10Q539.40 2 527.70 2L527.70 2L527.70 2Q521.60 2 513.50 0.25L513.50 0.25L513.50 0.25Q505.40-1.50 502.10-2.50L502.10-2.50Z" fill="url(#editing-glowing-gradient)"></path></g></g><style>text {
  font-size: 64px;
  font-family: Arial Black;
  dominant-baseline: central;
  text-anchor: middle;
}</style></svg>